<svg xmlns="http://www.w3.org/2000/svg" viewBox="0 0 400 300">
  <defs>
    <linearGradient id="bg" x1="0" y1="0" x2="1" y2="1">
      <stop offset="0" stop-color="#16294a"/>
      <stop offset="1" stop-color="#0b1526"/>
    </linearGradient>
  </defs>
  <rect width="400" height="300" fill="url(#bg)"/>
  <ellipse cx="200" cy="232" rx="150" ry="12" fill="#000" opacity="0.35"/>
  <g fill="#f5a623">
    <path d="M78 210c0-8 6-14 14-14h12l22-38c4-7 12-12 20-12h108c8 0 16 5 20 12l22 38h12c8 0 14 6 14 14v14c0 4-3 8-8 8h-18a26 26 0 0 1-52 0h-84a26 26 0 0 1-52 0H86c-5 0-8-4-8-8v-14z" opacity="0.92"/>
  </g>
  <g fill="#0b1526">
    <path d="M136 194l16-30c2-4 7-8 12-8h34v38h-62zM210 194v-38h44c5 0 10 4 12 8l16 30h-72z" opacity="0.85"/>
    <circle cx="134" cy="232" r="16"/>
    <circle cx="266" cy="232" r="16"/>
  </g>
  <g fill="#9fb0ca">
    <circle cx="134" cy="232" r="7"/>
    <circle cx="266" cy="232" r="7"/>
  </g>
  <text x="200" y="282" text-anchor="middle" font-family="Arial, sans-serif" font-size="13" fill="#9fb0ca" letter-spacing="2">PHOTO COMING SOON</text>
</svg>
