<svg xmlns="http://www.w3.org/2000/svg" viewBox="0 0 400 300">
  <defs>
    <linearGradient id="bg" x1="0" y1="0" x2="1" y2="1">
      <stop offset="0" stop-color="#16294a"/>
      <stop offset="1" stop-color="#0b1526"/>
    </linearGradient>
  </defs>
  <rect width="400" height="300" fill="url(#bg)"/>
  <ellipse cx="200" cy="234" rx="155" ry="12" fill="#000" opacity="0.35"/>
  <g fill="#f5a623">
    <path d="M76 212c0-8 6-14 14-14h6v-52c0-10 8-18 18-18h164c10 0 18 8 18 18v52h6c8 0 14 6 14 14v12c0 4-3 8-8 8h-16a26 26 0 0 1-52 0h-88a26 26 0 0 1-52 0H84c-5 0-8-4-8-8v-12z" opacity="0.92"/>
  </g>
  <g fill="#0b1526">
    <path d="M110 196v-46c0-5 4-9 9-9h72v55h-81zM205 196v-55h72c5 0 9 4 9 9v46h-81z" opacity="0.85"/>
    <circle cx="132" cy="234" r="16"/>
    <circle cx="268" cy="234" r="16"/>
  </g>
  <g fill="#9fb0ca">
    <circle cx="132" cy="234" r="7"/>
    <circle cx="268" cy="234" r="7"/>
  </g>
  <text x="200" y="284" text-anchor="middle" font-family="Arial, sans-serif" font-size="13" fill="#9fb0ca" letter-spacing="2">PHOTO COMING SOON</text>
</svg>
